<?xml version="1.0" encoding="UTF-8" standalone="no"?>
<!-- Created with Inkscape (http://www.inkscape.org/) -->

<svg
   version="1.1"
   id="svg2"
   xml:space="preserve"
   width="1090.7896"
   height="252.09332"
   viewBox="0 0 1090.7896 252.09332"
   sodipodi:docname="eu_logo_horizontal.svg"
   inkscape:version="1.1.2 (0a00cf5339, 2022-02-04)"
   inkscape:export-filename="/home/zaitsev/range_software/pulseq/doc/images/eu_logo_horizontal.png"
   inkscape:export-xdpi="19.010082"
   inkscape:export-ydpi="19.010082"
   xmlns:inkscape="http://www.inkscape.org/namespaces/inkscape"
   xmlns:sodipodi="http://sodipodi.sourceforge.net/DTD/sodipodi-0.dtd"
   xmlns="http://www.w3.org/2000/svg"
   xmlns:svg="http://www.w3.org/2000/svg"><defs
     id="defs6" /><sodipodi:namedview
     id="namedview4"
     pagecolor="#ffffff"
     bordercolor="#666666"
     borderopacity="1.0"
     inkscape:pageshadow="2"
     inkscape:pageopacity="0.0"
     inkscape:pagecheckerboard="0"
     showgrid="false"
     inkscape:zoom="1.9770934"
     inkscape:cx="683.57924"
     inkscape:cy="155.53135"
     inkscape:window-width="2378"
     inkscape:window-height="1177"
     inkscape:window-x="154"
     inkscape:window-y="127"
     inkscape:window-maximized="0"
     inkscape:current-layer="g8" /><g
     id="g8"
     inkscape:groupmode="layer"
     inkscape:label="ink_ext_XXXXXX"
     transform="matrix(1.3333333,0,0,-1.3333333,-7.5625065,2752.7199)"><g
       id="g6056"
       transform="translate(3)"><path
         d="M 5.67188,1875.47 H 289.274 v 189.07 H 5.67188 v -189.07"
         style="fill:#003087;fill-opacity:1;fill-rule:nonzero;stroke:none;stroke-width:0.1"
         id="path148" /><path
         d="m 141.43,2023.34 5.984,4.37 5.985,-4.37 -2.278,7.07 6.079,4.36 h -7.493 l -2.293,7.15 -2.293,-7.16 -7.488,0.01 6.074,-4.36 -2.277,-7.07"
         style="fill:#fbca07;fill-opacity:1;fill-rule:nonzero;stroke:none;stroke-width:0.1"
         id="path150" /><path
         d="m 110.461,2015.02 5.984,4.37 5.981,-4.37 -2.274,7.07 6.075,4.36 h -7.493 l -2.292,7.16 -2.293,-7.17 -7.489,0.01 6.074,-4.36 -2.273,-7.07"
         style="fill:#fbca07;fill-opacity:1;fill-rule:nonzero;stroke:none;stroke-width:0.1"
         id="path152" /><path
         d="m 93.7852,2010.9 -2.293,-7.17 -7.4883,0.01 6.0742,-4.37 -2.2769,-7.06 5.984,4.37 5.9839,-4.37 -2.2769,7.06 6.0738,4.37 h -7.4879 l -2.2929,7.16"
         style="fill:#fbca07;fill-opacity:1;fill-rule:nonzero;stroke:none;stroke-width:0.1"
         id="path154" /><path
         d="m 85.473,1965.75 5.9809,-4.37 -2.2738,7.06 6.0738,4.37 H 87.766 l -2.293,7.16 -2.2929,-7.17 -7.4922,0.01 6.0781,-4.37 -2.2769,-7.06 5.9839,4.37"
         style="fill:#fbca07;fill-opacity:1;fill-rule:nonzero;stroke:none;stroke-width:0.1"
         id="path156" /><path
         d="m 96.0781,1941.79 -2.2929,7.15 -2.293,-7.16 -7.4883,0.01 6.0742,-4.37 -2.2769,-7.06 5.984,4.37 5.9839,-4.37 -2.2769,7.06 6.0738,4.37 h -7.4879"
         style="fill:#fbca07;fill-opacity:1;fill-rule:nonzero;stroke:none;stroke-width:0.1"
         id="path158" /><path
         d="m 118.781,1919.09 -2.293,7.14 -2.289,-7.15 -7.492,0.01 6.074,-4.37 -2.273,-7.06 5.984,4.36 5.98,-4.36 -2.273,7.06 6.074,4.37 h -7.492"
         style="fill:#fbca07;fill-opacity:1;fill-rule:nonzero;stroke:none;stroke-width:0.1"
         id="path160" /><path
         d="m 149.711,1910.86 -2.293,7.15 -2.289,-7.16 -7.492,0.01 6.074,-4.37 -2.273,-7.06 5.984,4.37 5.98,-4.37 -2.277,7.06 6.078,4.37 h -7.492"
         style="fill:#fbca07;fill-opacity:1;fill-rule:nonzero;stroke:none;stroke-width:0.1"
         id="path162" /><path
         d="m 180.641,1919.09 -2.289,7.14 -2.297,-7.15 -7.484,0.01 6.07,-4.37 -2.273,-7.06 5.984,4.36 5.984,-4.36 -2.281,7.06 6.078,4.37 h -7.492"
         style="fill:#fbca07;fill-opacity:1;fill-rule:nonzero;stroke:none;stroke-width:0.1"
         id="path164" /><path
         d="m 203.352,1941.79 -2.297,7.15 -2.297,-7.16 -7.484,0.01 6.078,-4.37 -2.281,-7.06 5.984,4.37 5.984,-4.37 -2.281,7.06 6.078,4.37 h -7.484"
         style="fill:#fbca07;fill-opacity:1;fill-rule:nonzero;stroke:none;stroke-width:0.1"
         id="path166" /><path
         d="m 219.063,1972.9 h -7.492 l -2.297,7.15 -2.289,-7.16 -7.492,0.01 6.078,-4.37 -2.274,-7.06 5.977,4.37 5.984,-4.37 -2.273,7.06 6.078,4.37"
         style="fill:#fbca07;fill-opacity:1;fill-rule:nonzero;stroke:none;stroke-width:0.1"
         id="path168" /><path
         d="m 195.07,1992.41 5.984,4.36 5.985,-4.36 -2.281,7.06 6.078,4.36 h -7.485 l -2.297,7.15 -2.296,-7.16 -7.485,0.01 6.078,-4.36 -2.281,-7.06"
         style="fill:#fbca07;fill-opacity:1;fill-rule:nonzero;stroke:none;stroke-width:0.1"
         id="path170" /><path
         d="m 178.438,2033.6 -2.289,-7.16 -7.492,0.01 6.07,-4.37 -2.273,-7.07 5.992,4.38 5.976,-4.38 -2.273,7.07 6.078,4.37 h -7.5 l -2.289,7.15"
         style="fill:#fbca07;fill-opacity:1;fill-rule:nonzero;stroke:none;stroke-width:0.1"
         id="path172" /></g><g
       id="g174"
       transform="translate(-19.5,-1.5)"
       style="fill:#003087;fill-opacity:1"><text
         transform="scale(1,-1)"
         style="font-variant:normal;font-weight:bold;font-size:65px;font-family:Arial;-inkscape-font-specification:Arial-BoldMT;writing-mode:lr-tb;fill:#003087;fill-opacity:1;fill-rule:nonzero;stroke:none"
         id="text180"
         x="227.14432"
         y="-1953.152"><tspan
           x="342.70291 386.05847 425.76257 451.05847 490.76257 530.46667 566.61707 602.76752 642.47162 660.53119 707.47162 747.17578 765.23535 804.93939"
           sodipodi:role="line"
           id="tspan178">European Union</tspan></text></g></g></svg>
