<?xml version="1.0" encoding="UTF-8" standalone="no"?>
<svg
   viewBox="0 0 743.6465 211.03879"
   version="1.1"
   id="svg8"
   width="743.64648"
   height="211.03879"
   sodipodi:docname="nih_logo_horizontal.svg"
   inkscape:version="1.1.2 (0a00cf5339, 2022-02-04)"
   inkscape:export-filename="/home/zaitsev/range_software/pulseq/doc/images/nih_logo_horizontal.png"
   inkscape:export-xdpi="22.720472"
   inkscape:export-ydpi="22.720472"
   xmlns:inkscape="http://www.inkscape.org/namespaces/inkscape"
   xmlns:sodipodi="http://sodipodi.sourceforge.net/DTD/sodipodi-0.dtd"
   xmlns="http://www.w3.org/2000/svg"
   xmlns:svg="http://www.w3.org/2000/svg"
   xmlns:rdf="http://www.w3.org/1999/02/22-rdf-syntax-ns#"
   xmlns:cc="http://creativecommons.org/ns#"
   xmlns:dc="http://purl.org/dc/elements/1.1/">
  <sodipodi:namedview
     id="namedview38"
     pagecolor="#ffffff"
     bordercolor="#666666"
     borderopacity="1.0"
     inkscape:pageshadow="2"
     inkscape:pageopacity="0.0"
     inkscape:pagecheckerboard="0"
     showgrid="false"
     inkscape:zoom="2.1854103"
     inkscape:cx="319.61962"
     inkscape:cy="164.5"
     inkscape:window-width="2898"
     inkscape:window-height="1373"
     inkscape:window-x="386"
     inkscape:window-y="224"
     inkscape:window-maximized="0"
     inkscape:current-layer="svg8" />
  <defs
     id="defs12" />
  <title
     id="title2">NIH Intramural Research Program: Our Research Changes Lives</title>
  <metadata
     id="metadata5867">
    <rdf:RDF>
      <cc:Work
         rdf:about="">
        <dc:title>NIH Intramural Research Program: Our Research Changes Lives</dc:title>
      </cc:Work>
    </rdf:RDF>
  </metadata>
  <g
     id="g23279"
     transform="matrix(2.2457257,0,0,2.2144497,4,0)">
    <path
       d="m 111.00886,95.3 26.1,-47.7 -26,-47.6 h 6.5 c 3.6,0 7.9,2.6 9.6,5.7 l 22.8,41.9 -22.9,41.9 c -1.7,3.2 -6.1,5.7 -9.6,5.7 h -6.5 z"
       fill="#20558a"
       id="path4"
       style="display:inline" />
    <path
       id="path22970"
       d="M 8.6992188,0 C 3.8992188,0 0,3.9007812 0,8.8007812 V 86.5 c 0,4.8 3.8992188,8.800781 8.6992188,8.800781 H 104.5 L 130.59961,47.599609 104.5,0 Z m 5.9003902,26.400391 h 7.800782 l 19.199218,31.40039 h 0.09961 v -31.40039 h 7 V 69 H 40.900391 L 21.800781,37.699219 H 21.599609 V 69 h -7 z m 41.400391,0 h 7.400391 V 69 H 63.300781 56 Z m 14.699219,0 h 7.40039 v 16.90039 h 19.201172 v -16.90039 h 7.298829 V 69 H 97.199219 V 49.800781 H 78.099609 V 69 h -7.40039 z"
       style="fill:#616265" />
  </g>
  <path
     d="m -17.305441,278.25659 -13.530715,-24.807 v 24.807 h -5.81758 V 244.8594 h 7.482915 l 13.730558,25.18161 10e-7,-25.18161 h 5.81758 v 33.39719 z"
     style="font-weight:bold;font-family:'Liberation Sans';-inkscape-font-specification:'Liberation Sans Bold';letter-spacing:-1px;word-spacing:-3px;display:none;fill:#616265;fill-opacity:1;stroke-width:1.0068"
     id="path288744" />
  <path
     d="m -36.653737,244.8594 h 5.81758 v 33.3972 h -5.81758 z"
     id="path295952"
     style="display:none;fill:#ff0000;fill-opacity:1;stroke-width:1.07733" />
  <g
     id="g177"
     transform="translate(365.68402,-181.61969)">
    <path
       d="m 175.11041,328.63443 v -14.86268 h -14.87364 v 14.86268 h -5.81758 v -33.4328 h 5.81758 v 13.31143 h 14.87364 v -13.31143 h 5.81758 v 33.4328 z"
       style="font-weight:bold;font-family:'Liberation Sans';-inkscape-font-specification:'Liberation Sans Bold';letter-spacing:-1px;word-spacing:0px;display:inline;fill:#616265;fill-opacity:1;stroke-width:0.949322"
       id="path288731" />
    <path
       id="path288385"
       d="m 42.594407,253.61598 c -5.386643,0 -10.664711,1.83147 -10.98791,8.07997 h 5.277228 c 0.215466,-2.69333 2.26281,-3.87796 5.27933,-3.87796 2.154655,0 4.955289,0.43092 4.955289,3.23198 0,3.12424 -3.338877,2.80021 -7.217258,3.44661 -4.417047,0.53865 -9.264604,1.50825 -9.264604,7.54129 0,4.63252 3.985275,7.00264 8.294587,7.00264 2.908788,0 6.249344,-0.86102 8.404001,-2.90793 0.430931,2.15464 1.937931,2.90793 4.092587,2.90793 0.861862,0 2.587269,-0.32279 3.341398,-0.64598 v -3.66332 c -0.538664,0.10773 -0.970856,0.1073 -1.294054,0.1073 -0.969595,0 -1.291955,-0.53784 -1.291955,-1.83062 h 0.107313 v -12.38928 c 0,-5.06343 -4.955709,-7.00264 -9.695952,-7.00264 z m 4.309312,12.60391 h 0.107313 v 3.87795 c 0,3.44744 -3.662496,4.63337 -6.032619,4.63337 -1.939192,0 -4.955291,-0.75455 -4.955291,-3.12468 0,-2.80105 2.046923,-3.6621 4.309316,-3.98528 2.370121,-0.3232 4.955287,-0.32403 6.571281,-1.40136 z"
       style="fill:#616265;fill-opacity:1;stroke-width:1.07734" />
    <path
       d="m 55.40909,254.15463 h 3.986118 v -7.2181 h 5.278912 v 7.2181 h 4.84798 v 3.98612 h -4.84798 v 12.92795 c 0,2.15466 0.215465,3.33972 2.585589,3.33972 0.754131,0 1.508261,0 2.262391,-0.21547 v 4.09385 c -1.185062,0.10774 -2.262391,0.3232 -3.447453,0.3232 -5.60211,0 -6.571707,-2.15466 -6.679439,-6.14077 V 258.14075 H 55.40909 Z"
       id="path288387"
       style="fill:#616265;fill-opacity:1;stroke-width:1.07733" />
    <path
       id="path288799"
       style="fill:#616265;fill-opacity:1;stroke-width:1.07733"
       d="m 94.228354,253.53069 c -7.756769,0 -12.174659,5.27765 -12.174659,12.71122 0,7.43357 4.41789,12.82106 12.174659,12.71333 7.756766,0 12.172556,-5.27976 12.172556,-12.71333 0,-7.43357 -4.41579,-12.71122 -12.172556,-12.71122 z m 0,4.19991 c 4.740247,0 6.893226,4.30973 6.893226,8.51131 0,4.20159 -2.152979,8.61906 -6.893226,8.51132 -4.847981,0 -6.895326,-4.30973 -6.895326,-8.51132 0,-4.20158 2.155078,-8.51131 6.895326,-8.51131 z" />
    <path
       d="m 110.45597,254.15463 h 5.06345 v 3.55518 l 0.10773,0.10774 c 1.616,-2.69333 4.30932,-4.30932 7.54131,-4.30932 5.27891,0 8.5109,2.80106 8.5109,8.1877 v 16.59087 h -5.27891 v -15.08261 c -0.10774,-3.77065 -1.616,-5.38664 -4.74025,-5.38664 -3.55519,0 -5.81758,2.80105 -5.81758,6.35624 v 14.22074 h -5.27891 v -24.2399 z"
       id="path288803"
       style="fill:#616265;fill-opacity:1;stroke-width:1.07733" />
    <path
       id="path288805"
       d="m 146.9396,253.61597 c -5.38665,0 -10.66472,1.83146 -10.98791,8.07997 h 5.27723 c 0.21546,-2.69332 2.26281,-3.87796 5.27933,-3.87796 2.15465,0 4.95529,0.43093 4.95529,3.23199 0,3.12426 -3.33888,2.80021 -7.21726,3.44661 -4.41705,0.53866 -9.26461,1.50826 -9.26461,7.5413 0,4.6325 3.98528,7.00263 8.29459,7.00263 2.90879,0 6.24935,-0.86103 8.404,-2.90795 0.43093,2.15468 1.93793,2.90795 4.09259,2.90795 0.86186,0 2.58727,-0.32278 3.3414,-0.64596 v -3.66336 c -0.53866,0.10773 -0.97086,0.1073 -1.29406,0.1073 -0.96959,0 -1.29195,-0.53781 -1.29195,-1.8306 h 0.1073 V 260.6186 c 0,-5.06344 -4.95571,-7.00264 -9.69595,-7.00264 z m 4.30931,12.6039 h 0.1073 v 3.87798 c 0,3.44744 -3.66249,4.63334 -6.03262,4.63334 -1.93919,0 -4.95529,-0.75453 -4.95529,-3.12465 0,-2.80107 2.04693,-3.66209 4.30932,-3.9853 2.37012,-0.32319 4.95529,-0.32403 6.57128,-1.40137 z"
       style="fill:#616265;fill-opacity:1;stroke-width:1.07733" />
    <path
       d="m 161.96411,244.99734 h 5.27891 v 33.39719 h -5.27891 z"
       id="path288807"
       style="fill:#616265;fill-opacity:1;stroke-width:1.07733" />
    <path
       d="m 185.67536,244.99733 h 5.81758 v 33.3972 h -5.81758 z"
       id="path288809"
       style="fill:#616265;fill-opacity:1;stroke-width:1.07733" />
    <path
       d="m 197.16926,254.15463 h 5.06345 v 3.55518 l 0.10773,0.10774 c 1.616,-2.69332 4.30932,-4.30932 7.54131,-4.30932 5.27891,0 8.5109,2.80106 8.5109,8.1877 v 16.59087 h -5.27892 v -15.08261 c -0.10773,-3.77065 -1.61599,-5.38664 -4.74024,-5.38664 -3.55519,0 -5.81758,2.80105 -5.81758,6.35624 v 14.22074 H 197.277 v -24.2399 z"
       id="path288811"
       style="fill:#616265;fill-opacity:1;stroke-width:1.07733" />
    <path
       style="fill:#616265;fill-opacity:1;stroke-width:1.07733"
       d="m 232.81212,253.74532 c -4.41705,0 -10.12731,1.61641 -10.12731,6.89532 0,4.84798 3.87964,6.24809 7.75803,7.10995 3.87838,0.86187 7.75551,1.18423 7.86324,3.98529 0.10773,2.69332 -3.33972,3.12468 -5.38665,3.12468 -2.90878,0 -5.17076,-1.07775 -5.49395,-4.20202 v 0.10942 h -5.27934 c 0.10774,5.70985 4.63294,8.40191 10.66598,8.40191 4.95571,0 10.77329,-2.1534 10.77329,-7.86324 0,-4.74026 -3.87754,-6.14079 -7.75593,-7.00265 -3.98611,-0.86186 -7.86534,-1.29447 -7.86534,-3.88006 0,-2.15466 2.90837,-2.4766 4.41663,-2.4766 2.37012,0 4.52646,0.75413 4.95739,3.23199 h 5.60127 c -0.64639,-5.38665 -5.1716,-7.43399 -10.12731,-7.43399 z"
       id="path288813" />
    <path
       d="m 244.37831,254.15463 h 3.98612 v -7.2181 h 5.27891 v 7.2181 h 4.84798 v 3.98612 h -4.84798 v 12.92795 c 0,2.15466 0.21547,3.33972 2.58559,3.33972 0.75413,0 1.50826,0 2.26239,-0.21547 v 4.09385 c -1.18506,0.10774 -2.26239,0.3232 -3.44745,0.3232 -5.60211,0 -6.57171,-2.15466 -6.67944,-6.14077 v -14.32848 h -3.98612 z"
       id="path288815"
       style="fill:#616265;fill-opacity:1;stroke-width:1.07733" />
    <path
       d="m 270.35688,254.15463 h 3.98611 v -7.2181 h 5.27892 v 7.2181 h 4.84798 v 3.98612 h -4.84798 v 12.92795 c 0,2.15466 0.21546,3.33972 2.58559,3.33972 0.75413,0 1.50826,0 2.26239,-0.21547 v 4.09385 c -1.18506,0.10774 -2.26239,0.3232 -3.44746,0.3232 -5.60211,0 -6.5717,-2.15466 -6.67944,-6.14077 v -14.32848 h -3.98611 z"
       id="path288817"
       style="fill:#616265;fill-opacity:1;stroke-width:1.07733" />
    <path
       d="m 308.82548,278.39453 h -5.27892 v -3.33972 h -0.10773 c -1.29279,2.47786 -4.20158,3.98612 -6.8949,3.98612 -6.35625,0 -9.04957,-3.23199 -9.04957,-9.4805 v -15.4058 h 5.27891 v 14.7594 c 0,4.20159 1.72373,5.81758 4.63252,5.81758 4.41705,0 5.92531,-2.80106 5.92531,-6.57171 v -14.00527 h 5.27891 v 24.2399 z"
       id="path288819"
       style="fill:#616265;fill-opacity:1;stroke-width:1.07733" />
    <path
       d="m 311.22531,254.15463 h 3.98612 v -7.21811 h 5.27891 v 7.21811 h 4.84798 v 3.98612 h -4.84798 v 12.92794 c 0,2.15466 0.21547,3.33972 2.58559,3.33972 0.75413,0 1.50826,0 2.26239,-0.21546 v 4.09385 c -1.18506,0.10773 -2.26239,0.3232 -3.44745,0.3232 -5.60211,0 -6.57171,-2.15466 -6.67944,-6.14078 v -14.32847 h -3.98612 z"
       id="path288821"
       style="fill:#616265;fill-opacity:1;stroke-width:1.07733" />
    <path
       id="path288823"
       style="fill:#616265;fill-opacity:1;stroke-width:1.07733"
       d="m 338.99183,253.53069 c -7.11037,0 -11.63599,5.81631 -11.63599,12.71121 0,7.43357 4.30931,12.71334 11.85061,12.71334 5.27892,0 9.69765,-2.90837 10.88271,-8.18728 h -5.06471 c -0.96959,2.58559 -2.80105,3.98527 -5.92531,3.98527 -4.41705,0 -6.46397,-3.3393 -6.46397,-7.10995 h 17.77593 c 0.86186,-7.2181 -3.77023,-14.11259 -11.41927,-14.11259 z m 0.1073,4.30932 c 3.55519,0 5.81716,3.01483 6.03262,6.35455 h -12.38928 c 0.10773,-3.55519 2.69374,-6.35455 6.35666,-6.35455 z" />
    <path
       id="path288829"
       style="fill:#616265;fill-opacity:1;stroke-width:1.07733"
       d="m 197.21744,303.74813 c -7.11037,0 -11.63599,5.81631 -11.63599,12.71122 0,7.43357 4.30931,12.71332 11.85061,12.71332 5.27892,0 9.69765,-2.90837 10.88271,-8.18728 h -5.06471 c -0.96959,2.58559 -2.80105,3.98528 -5.92531,3.98528 -4.41705,0 -6.46397,-3.3393 -6.46397,-7.10995 h 17.77593 c 0.86186,-7.21811 -3.77023,-14.11259 -11.41927,-14.11259 z m 0.1073,4.30931 c 3.55519,0 5.81716,3.01484 6.03262,6.35456 h -12.38928 c 0.10773,-3.55518 2.69374,-6.35456 6.35666,-6.35456 z" />
    <path
       id="path288831"
       d="m 222.56493,303.74813 c -5.38664,0 -10.66472,1.83925 -10.98791,8.11434 h 5.27723 c 0.21546,-2.70478 2.26281,-3.89446 5.27933,-3.89446 2.15466,0 4.95529,0.43276 4.95529,3.24574 0,3.13754 -3.33888,2.81212 -7.21726,3.46127 -4.41705,0.54095 -9.26461,1.51467 -9.26461,7.57338 0,4.65223 3.98528,7.03243 8.29459,7.03243 2.90879,0 6.24935,-0.86468 8.40401,-2.92031 0.43093,2.16382 1.93793,2.92031 4.09259,2.92031 0.86186,0 2.58727,-0.32415 3.3414,-0.64872 v -3.67892 c -0.53866,0.10819 -0.97086,0.10777 -1.29406,0.10777 -0.96959,0 -1.29195,-0.54011 -1.29195,-1.83841 h 0.1073 v -12.44199 c 0,-5.08499 -4.95571,-7.03243 -9.69596,-7.03243 z m 4.30932,12.65753 h 0.1073 v 3.89446 c 0,3.46211 -3.6625,4.65307 -6.03262,4.65307 -1.93919,0 -4.9553,-0.75777 -4.9553,-3.13797 0,-2.81297 2.04693,-3.67766 4.30932,-4.00223 2.37012,-0.32457 4.95529,-0.32543 6.57129,-1.40733 z"
       style="fill:#616265;fill-opacity:1;stroke-width:1.07962" />
    <path
       style="fill:#616265;fill-opacity:1;stroke-width:1.05683"
       d="m 263.46369,295.20163 v 33.4328 h 5.0748 v -14.23716 c 0,-3.55898 2.17514,-6.36134 5.59259,-6.36134 3.00322,0 4.45346,1.61773 4.55701,5.39239 V 328.527 h 5.07481 v -16.60896 c 0,-5.39239 -3.10719,-8.19602 -8.18158,-8.19602 -3.00321,0 -5.69697,1.72516 -6.93967,3.8821 h -0.10315 v -12.40249 z"
       id="path288974" />
    <path
       style="fill:#616265;fill-opacity:1;stroke-width:1.07733"
       d="m 363.18918,253.74532 c -4.41705,0 -10.12731,1.61641 -10.12731,6.89532 0,4.84798 3.87964,6.24809 7.75803,7.10995 3.87838,0.86187 7.75551,1.18423 7.86324,3.98528 0.10773,2.69332 -3.33972,3.12468 -5.38665,3.12468 -2.90878,0 -5.17076,-1.07775 -5.49395,-4.20201 v 0.10942 h -5.27934 c 0.10774,5.70984 4.63294,8.4019 10.66598,8.4019 4.95571,0 10.77329,-2.1534 10.77329,-7.86324 0,-4.74025 -3.87754,-6.14078 -7.75593,-7.00264 -3.98611,-0.86186 -7.86534,-1.29447 -7.86534,-3.88006 0,-2.15466 2.90837,-2.4766 4.41663,-2.4766 2.37012,0 4.52646,0.75413 4.95739,3.23199 h 5.60127 c -0.64639,-5.38665 -5.1716,-7.43399 -10.12731,-7.43399 z"
       id="path289518" />
    <path
       d="m 72.689356,249.80956 v -4.81222 h 5.27891 v 4.81222 z m 0,28.58497 v -24.2399 h 5.27891 v 24.2399 z"
       style="font-weight:bold;font-family:'Liberation Sans';-inkscape-font-specification:'Liberation Sans Bold';letter-spacing:-1px;word-spacing:-3px;fill:#616265;fill-opacity:1;stroke-width:0.917127"
       id="path290609" />
    <path
       d="m 262.01954,249.80956 v -4.81222 h 5.27891 v 4.81222 z m 0,28.58497 v -24.2399 h 5.27891 v 24.2399 z"
       style="font-weight:bold;font-family:'Liberation Sans';-inkscape-font-specification:'Liberation Sans Bold';letter-spacing:-1px;word-spacing:-3px;fill:#616265;fill-opacity:1;stroke-width:0.917127"
       id="path291682" />
    <path
       d="m 245.71372,304.39453 h 3.98612 v -7.2181 h 5.27891 v 7.2181 h 4.84798 v 3.98612 h -4.84798 v 12.92795 c 0,2.15466 0.21547,3.33972 2.58559,3.33972 0.75413,0 1.50826,0 2.26239,-0.21547 v 4.09385 c -1.18506,0.10774 -2.26239,0.3232 -3.44745,0.3232 -5.60211,0 -6.57171,-2.15466 -6.67944,-6.14077 v -14.32848 h -3.98612 z"
       id="path291766"
       style="fill:#616265;fill-opacity:1;stroke-width:1.07733" />
    <path
       d="m 237.32364,295.20163 h 5.27891 v 33.39719 h -5.27891 z"
       id="path292070"
       style="fill:#616265;fill-opacity:1;stroke-width:1.07733" />
    <path
       d="m 124.91202,308.38065 h 3.98612 v 20.25378 h 5.27891 v -20.25378 h 4.84798 v -3.98612 h -4.84798 v -1.9748 c 0,-2.15466 0.21547,-3.33972 2.58559,-3.33972 0.75413,0 1.50826,0 2.26239,0.21547 v -4.09385 c -1.18506,-0.10774 -2.26239,-0.3232 -3.44745,-0.3232 -5.60211,0 -6.57171,2.15466 -6.67944,6.14077 v 3.37533 h -3.98612 z"
       id="path293099"
       style="fill:#616265;fill-opacity:1;stroke-width:1.07733" />
    <path
       id="path293650"
       style="fill:#616265;fill-opacity:1;stroke-width:1.07733"
       d="m 111.2371,303.74813 c -7.75677,0 -12.174661,5.27765 -12.174661,12.71122 0,7.43357 4.417891,12.82106 12.174661,12.71333 7.75677,0 12.17255,-5.27976 12.17255,-12.71333 0,-7.43357 -4.41578,-12.71122 -12.17255,-12.71122 z m 0,4.19991 c 4.74025,0 6.89322,4.30973 6.89322,8.51131 0,4.20159 -2.15297,8.61906 -6.89322,8.51132 -4.84798,0 -6.89533,-4.30973 -6.89533,-8.51132 0,-4.20158 2.15508,-8.51131 6.89533,-8.51131 z" />
    <path
       d="M 21.22472,278.39453 5.828826,254.15463 v 24.2399 h -5.81758 v -33.39719 h 5.81758 l 15.395894,24.2399 v -24.2399 h 5.81758 v 33.39719 z"
       style="font-weight:bold;font-family:'Liberation Sans';-inkscape-font-specification:'Liberation Sans Bold';letter-spacing:-1px;word-spacing:-3px;display:inline;fill:#616265;fill-opacity:1;stroke-width:1.0068"
       id="path297505" />
  </g>
</svg>
